<?xml version="1.0" encoding="UTF-8" standalone="no"?>
<svg
   width="24"
   height="24"
   fill-rule="evenodd"
   clip-rule="evenodd"
   version="1.1"
   id="svg558"
   sodipodi:docname="cv-logo.svg"
   inkscape:export-filename="cv-logo-mini.png"
   inkscape:export-xdpi="144"
   inkscape:export-ydpi="144"
   inkscape:version="1.2.2 (b0a8486541, 2022-12-01)"
   xmlns:inkscape="http://www.inkscape.org/namespaces/inkscape"
   xmlns:sodipodi="http://sodipodi.sourceforge.net/DTD/sodipodi-0.dtd"
   xmlns="http://www.w3.org/2000/svg"
   xmlns:svg="http://www.w3.org/2000/svg">
  <defs
     id="defs562" />
  <sodipodi:namedview
     id="namedview560"
     pagecolor="#ffffff"
     bordercolor="#000000"
     borderopacity="0.25"
     inkscape:showpageshadow="2"
     inkscape:pageopacity="0.0"
     inkscape:pagecheckerboard="0"
     inkscape:deskcolor="#d1d1d1"
     showgrid="false"
     inkscape:zoom="37.416667"
     inkscape:cx="12.013363"
     inkscape:cy="12.013363"
     inkscape:window-width="1920"
     inkscape:window-height="1056"
     inkscape:window-x="1920"
     inkscape:window-y="0"
     inkscape:window-maximized="1"
     inkscape:current-layer="svg558" />
  <path
     d="M3 24h19v-23h-1v22h-18v1zm17-24h-18v22h18v-22zm-1 1h-16v20h16v-20zm-2 16h-12v1h12v-1zm0-3h-12v1h12v-1zm0-3h-12v1h12v-1zm-7.348-3.863l.948.3c-.145.529-.387.922-.725 1.178-.338.257-.767.385-1.287.385-.643 0-1.171-.22-1.585-.659-.414-.439-.621-1.04-.621-1.802 0-.806.208-1.432.624-1.878.416-.446.963-.669 1.642-.669.592 0 1.073.175 1.443.525.221.207.386.505.496.892l-.968.231c-.057-.251-.177-.449-.358-.594-.182-.146-.403-.218-.663-.218-.359 0-.65.129-.874.386-.223.258-.335.675-.335 1.252 0 .613.11 1.049.331 1.308.22.26.506.39.858.39.26 0 .484-.082.671-.248.187-.165.322-.425.403-.779zm3.023 1.78l-1.731-4.842h1.06l1.226 3.584 1.186-3.584h1.037l-1.734 4.842h-1.044z"
     id="path556" />
</svg>
