<?xml version="1.0" encoding="UTF-8" standalone="no"?>
<!-- Uploaded to: SVG Repo, www.svgrepo.com, Generator: SVG Repo Mixer Tools -->

<svg
   width="800px"
   height="800px"
   viewBox="0 0 24 24"
   fill="none"
   version="1.1"
   id="svg4"
   sodipodi:docname="links-logo.svg"
   inkscape:export-filename="links-logo-mini.png"
   inkscape:export-xdpi="4.4868398"
   inkscape:export-ydpi="4.4868398"
   inkscape:version="1.2.2 (b0a8486541, 2022-12-01)"
   xmlns:inkscape="http://www.inkscape.org/namespaces/inkscape"
   xmlns:sodipodi="http://sodipodi.sourceforge.net/DTD/sodipodi-0.dtd"
   xmlns="http://www.w3.org/2000/svg"
   xmlns:svg="http://www.w3.org/2000/svg">
  <defs
     id="defs8" />
  <sodipodi:namedview
     id="namedview6"
     pagecolor="#ffffff"
     bordercolor="#000000"
     borderopacity="0.25"
     inkscape:showpageshadow="2"
     inkscape:pageopacity="0.0"
     inkscape:pagecheckerboard="0"
     inkscape:deskcolor="#d1d1d1"
     showgrid="false"
     inkscape:zoom="1.1225"
     inkscape:cx="400.44543"
     inkscape:cy="400.44543"
     inkscape:window-width="1920"
     inkscape:window-height="1056"
     inkscape:window-x="1920"
     inkscape:window-y="0"
     inkscape:window-maximized="1"
     inkscape:current-layer="svg4" />
  <path
     fill-rule="evenodd"
     clip-rule="evenodd"
     d="M10.975 14.51a1.05 1.05 0 0 0 0-1.485 2.95 2.95 0 0 1 0-4.172l3.536-3.535a2.95 2.95 0 1 1 4.172 4.172l-1.093 1.092a1.05 1.05 0 0 0 1.485 1.485l1.093-1.092a5.05 5.05 0 0 0-7.142-7.142L9.49 7.368a5.05 5.05 0 0 0 0 7.142c.41.41 1.075.41 1.485 0zm2.05-5.02a1.05 1.05 0 0 0 0 1.485 2.95 2.95 0 0 1 0 4.172l-3.5 3.5a2.95 2.95 0 1 1-4.171-4.172l1.025-1.025a1.05 1.05 0 0 0-1.485-1.485L3.87 12.99a5.05 5.05 0 0 0 7.142 7.142l3.5-3.5a5.05 5.05 0 0 0 0-7.142 1.05 1.05 0 0 0-1.485 0z"
     fill="#000000"
     id="path2" />
</svg>
